<svg xmlns="http://www.w3.org/2000/svg" data-name="Layer 1" width="868.9803" height="474.6702" viewBox="0 0 868.9803 474.6702" xmlns:xlink="http://www.w3.org/1999/xlink"><path d="M990.39582,289.249H488.80218a13.806,13.806,0,0,0-13.806,13.806V582.53364a13.806,13.806,0,0,0,13.806,13.806H990.39582a13.806,13.806,0,0,0,13.806-13.806V303.055a13.806,13.806,0,0,0-13.806-13.806Z" transform="translate(-165.50985 -212.6649)" fill="#
"/><rect x="327.99594" y="100.98308" width="492.18639" height="277.64361" fill="#fff"/><circle cx="573.66845" cy="88.36291" r="5.04805" fill="#fff"/><polygon points="679.425 378.627 327.996 378.627 327.996 100.983 679.425 378.627" fill="#f2f2f2" style="isolation:isolate"/><path d="M1018.02127,586.24353H969.987v-3.46086a.68617.68617,0,0,0-.68614-.68619h-16.469a.68618.68618,0,0,0-.68624.68614v3.46091H941.85279v-3.46086a.68618.68618,0,0,0-.68619-.68619H924.69772a.68618.68618,0,0,0-.6862.68619h0v3.46086h-10.293v-3.46086a.68618.68618,0,0,0-.6862-.68619H896.56338a.68618.68618,0,0,0-.6862.68619h0v3.46086h-10.293v-3.46086a.68618.68618,0,0,0-.68619-.68619H868.42909a.68617.68617,0,0,0-.6862.68614v3.46091h-10.293v-3.46086a.68618.68618,0,0,0-.6862-.68619H840.2948a.68618.68618,0,0,0-.6862.68619h0v3.46086H829.31553v-3.46086a.68618.68618,0,0,0-.68619-.68619H812.16046a.68618.68618,0,0,0-.6862.68619h0v3.46086h-10.293v-3.46086a.68618.68618,0,0,0-.6862-.68619H671.48891a.68618.68618,0,0,0-.6862.68619h0v3.46086H660.50964v-3.46086a.68618.68618,0,0,0-.6862-.68619H643.35462a.68618.68618,0,0,0-.6862.68619h0v3.46086H632.37535v-3.46086a.68617.68617,0,0,0-.68615-.68619H615.22028a.68618.68618,0,0,0-.6862.68619h0v3.46086H604.241v-3.46086a.68618.68618,0,0,0-.6862-.68619H587.08594a.68618.68618,0,0,0-.6862.68619h0v3.46086h-10.293v-3.46086a.68618.68618,0,0,0-.6862-.68619H558.95165a.68618.68618,0,0,0-.6862.68619h0v3.46086H547.97238v-3.46086a.68618.68618,0,0,0-.6862-.68619H530.81731a.68619.68619,0,0,0-.6862.68614v3.46091h-10.293v-3.46086a.68618.68618,0,0,0-.68617-.68619H502.683a.6862.6862,0,0,0-.6862.68619h0v3.46086H470.43146a16.46886,16.46886,0,0,0-16.46885,16.46887v7.44683a16.46885,16.46885,0,0,0,16.46885,16.46883h547.58981a16.46888,16.46888,0,0,0,16.46888-16.46883V602.7124A16.46885,16.46885,0,0,0,1018.02127,586.24353Z" transform="translate(-165.50985 -212.6649)" fill="#
"/><path d="M749.06641,554.88582a12.08948,12.08948,0,0,1-.55394,1.14324,14.6271,14.6271,0,0,1-4.433,4.987,14.56389,14.56389,0,0,1-22.94594-11.9105V546.755h1.99475A50.94173,50.94173,0,0,0,749.06641,554.88582Z" transform="translate(-165.50985 -212.6649)" fill="#3f3d56"/><path d="M777.5304,547.44323v1.66232a14.55908,14.55908,0,0,1-27.34415,6.97014,12.16026,12.16026,0,0,1-.57729-1.17239c.42578.01168.84557.01752,1.27164.01752A51.01779,51.01779,0,0,0,777.5304,547.44323Z" transform="translate(-165.50985 -212.6649)" fill="#3f3d56"/><path d="M797.15156,371.65583c-.43746-.06415-.88061-.105-1.32405-.13414a48.98222,48.98222,0,0,1,.97431,36.57714c.44315-.05247.88061-.12246,1.31807-.20413a18.37443,18.37443,0,0,0-.96833-36.23887Z" transform="translate(-165.50985 -212.6649)" fill="#3f3d56"/><path d="M705.9334,371.52169c-.44344.02915-.88659.07-1.32405.13414a18.37448,18.37448,0,0,0-.96832,36.23887c.43745.08167.87491.15166,1.31806.20413a48.98583,48.98583,0,0,1,.97431-36.57714Z" transform="translate(-165.50985 -212.6649)" fill="#3f3d56"/><path d="M797.15156,371.65583a50.15582,50.15582,0,1,0,3.89068,19.36473A50.22821,50.22821,0,0,0,797.15156,371.65583Zm-.34974,36.443a48.98222,48.98222,0,1,1,3.07387-17.07827A49.06652,49.06652,0,0,1,796.80182,408.09883Z" transform="translate(-165.50985 -212.6649)" fill="#3f3d56"/><path d="M776.5447,379.6467H725.2165a10.20731,10.20731,0,0,0,0,20.41462h51.3282a10.20731,10.20731,0,0,0,0-20.41462Z" transform="translate(-165.50985 -212.6649)" fill="#3f3d56"/><path d="M796.80182,478.18517q-.28025-.51623-.57758-1.01489c-.00569-.01168-.01167-.01752-.01737-.02916a52.4736,52.4736,0,1,0-47.6944,78.88794c.55394.02915,1.11386.04663,1.67378.04663.23354.01168.46081.01168.69435.01168a52.10841,52.10841,0,0,0,26.6498-7.2851A52.84318,52.84318,0,0,0,797.91,526.9003c.00569-.01167.01168-.01751.01737-.02919.17515-.35.34433-.70574.5135-1.06737a52.41937,52.41937,0,0,0-1.639-47.61857Zm.50154,47.29774q-.25376.54251-.52489,1.06741a51.68613,51.68613,0,0,1-19.24807,20.89291,51.01779,51.01779,0,0,1-26.6498,7.47759c-.42607,0-.84586-.00584-1.27164-.01752q-.27128,0-.54255-.01748a51.32636,51.32636,0,1,1,45.97391-77.41807c.0057.01164.01168.01748.01737.02916.20421.33247.40243.67074.58926,1.00905a51.263,51.263,0,0,1,1.65641,46.97695Z" transform="translate(-165.50985 -212.6649)" fill="#3f3d56"/><path d="M791.22568,479.73667A6.06692,6.06692,0,0,0,787.726,478.611H764.78578a6.02524,6.02524,0,1,0,0,12.05048H787.726a5.95878,5.95878,0,0,0,1.21895-.1225,6.61944,6.61944,0,0,0,1.16655-.36747,6.02282,6.02282,0,0,0,1.11415-10.43479Z" transform="translate(-165.50985 -212.6649)" fill="#3f3d56"/><circle cx="600.80328" cy="271.97097" r="3.05895" fill="#f1f1f1"/><circle cx="610.74487" cy="271.97097" r="3.05895" fill="#f1f1f1"/><circle cx="620.68647" cy="271.97097" r="3.05895" fill="#2692db"/><path d="M901.40674,383.8181c-7.955,4.7708-22.128,10.74873-36.61127,4.60532l-9.36232-3.9713,18.76142-21.03134a89.60221,89.60221,0,1,1,27.21217,20.39732Z" transform="translate(-165.50985 -212.6649)" fill="#fff"/><path d="M901.45553,384.95169c-7.64392,4.4878-22.20508,10.68994-37.05054,4.39209l-10.647-4.51611,19.09448-21.4043a90.60242,90.60242,0,1,1,128.58,6.91406h0a90.19848,90.19848,0,0,1-99.97692,14.61426Zm104.74011-141.24951A88.60227,88.60227,0,1,0,874.93526,362.74906l.60425.6665-18.43115,20.66113L865.186,387.503c14.33753,6.082,28.52527-.23584,35.70643-4.54248l.46423-.27881.48706.23682a88.6021,88.6021,0,0,0,104.35193-139.21631Z" transform="translate(-165.50985 -212.6649)" fill="#2692db"/><path d="M1016.20873,302.66717a82.46016,82.46016,0,0,0-75.16848-82.13206c2.40185-.2104,4.83137-.32424,7.28779-.32424a82.4563,82.4563,0,0,1,0,164.91257c-2.45272,0-4.87807-.11531-7.27628-.32526A82.4602,82.4602,0,0,0,1016.20873,302.66717Z" transform="translate(-165.50985 -212.6649)" opacity="0.1" style="isolation:isolate"/><rect x="727.77166" y="73.55937" width="58.91966" height="5.47153" fill="#2692db"/><rect x="727.77166" y="92.48718" width="102.69201" height="5.47153" fill="#2692db"/><rect x="727.77166" y="111.41497" width="102.59147" height="5.47153" fill="#2692db"/></svg>